<svg width="18" height="18" viewBox="0 0 18 18" fill="none" xmlns="http://www.w3.org/2000/svg">
<path d="M4.79241 10.6247C4.42864 10.6252 4.06938 10.7051 3.73969 10.8588C3.41 11.0126 3.11783 11.2364 2.88357 11.5147C2.64931 11.7929 2.47859 12.119 2.38335 12.4701C2.2881 12.8212 2.27062 13.1888 2.33212 13.5473C2.39361 13.9058 2.53261 14.2466 2.7394 14.5459C2.9462 14.8451 3.21581 15.0957 3.52942 15.28C3.84304 15.4643 4.19309 15.578 4.55516 15.613C4.91723 15.6481 5.28259 15.6037 5.62574 15.483" stroke="#FFB21E" stroke-width="1.25" stroke-linecap="round" stroke-linejoin="round"/>
<path d="M2.51241 11.9622C2.01371 11.7221 1.58265 11.3616 1.25812 10.9132C0.93359 10.4649 0.725813 9.94276 0.653541 9.39402C0.581268 8.84528 0.646774 8.28718 0.844147 7.77008C1.04152 7.25299 1.36455 6.79318 1.78408 6.43216M1.80908 6.36466C1.53578 5.9557 1.41599 5.46323 1.47093 4.97444C1.52586 4.48564 1.75197 4.03204 2.10922 3.69395C2.46648 3.35585 2.93184 3.15507 3.42291 3.12713C3.91399 3.0992 4.39912 3.24592 4.79241 3.54133M4.99074 3.59549C4.8578 3.31303 4.79004 3.0043 4.79247 2.69213C4.7949 2.37996 4.86745 2.07232 5.00477 1.79196C5.14209 1.5116 5.34065 1.26568 5.5858 1.07239C5.83094 0.879091 6.11639 0.74336 6.42105 0.675225C6.7257 0.60709 7.04178 0.608293 7.34591 0.678746C7.65003 0.749199 7.93444 0.8871 8.17811 1.08226C8.42177 1.27741 8.61846 1.52483 8.75364 1.80623C8.88881 2.08763 8.95902 2.39581 8.95907 2.70799V15.6247C8.95907 16.0667 8.78348 16.4906 8.47092 16.8032C8.15836 17.1157 7.73444 17.2913 7.29241 17.2913C6.85038 17.2913 6.42646 17.1157 6.1139 16.8032C5.80134 16.4906 5.62574 16.0667 5.62574 15.6247M8.95907 4.79133C8.95907 5.45437 9.22247 6.09025 9.69131 6.55909C10.1601 7.02793 10.796 7.29133 11.4591 7.29133M13.1257 10.6247C13.4895 10.6252 13.8488 10.7051 14.1785 10.8588C14.5081 11.0126 14.8003 11.2364 15.0346 11.5147C15.2688 11.7929 15.4396 12.119 15.5348 12.4701C15.63 12.8211 15.6475 13.1888 15.586 13.5473C15.5245 13.9058 15.3855 14.2466 15.1787 14.5459C14.9719 14.8451 14.7023 15.0957 14.3887 15.28C14.0751 15.4643 13.7251 15.578 13.363 15.613C13.0009 15.6481 12.6356 15.6037 12.2924 15.483" stroke="#FFB21E" stroke-width="1.25" stroke-linecap="round" stroke-linejoin="round"/>
<path d="M15.4057 11.9622C15.9044 11.7221 16.3355 11.3616 16.66 10.9132C16.9846 10.4649 17.1923 9.94276 17.2646 9.39402C17.3369 8.84528 17.2714 8.28718 17.074 7.77008C16.8766 7.25299 16.5536 6.79318 16.1341 6.43216M16.1091 6.36466C16.3824 5.9557 16.5022 5.46323 16.4472 4.97444C16.3923 4.48564 16.1662 4.03204 15.8089 3.69395C15.4517 3.35585 14.9863 3.15507 14.4952 3.12713C14.0042 3.0992 13.519 3.24592 13.1257 3.54133M8.95908 2.70799C8.95913 2.39581 9.02934 2.08763 9.16451 1.80623C9.29969 1.52483 9.49638 1.27741 9.74005 1.08226C9.98371 0.8871 10.2681 0.749199 10.5722 0.678746C10.8764 0.608293 11.1924 0.60709 11.4971 0.675225C11.8018 0.74336 12.0872 0.879091 12.3324 1.07239C12.5775 1.26568 12.7761 1.5116 12.9134 1.79196C13.0507 2.07232 13.1233 2.37996 13.1257 2.69213C13.1281 3.0043 13.0603 3.31303 12.9274 3.59549M12.2924 15.6247C12.2924 16.0667 12.1168 16.4906 11.8043 16.8032C11.4917 17.1157 11.0678 17.2913 10.6257 17.2913C10.1837 17.2913 9.75979 17.1157 9.44723 16.8032C9.13467 16.4906 8.95908 16.0667 8.95908 15.6247" stroke="#FFB21E" stroke-width="1.25" stroke-linecap="round" stroke-linejoin="round"/>
</svg>
