<svg width="17" height="12" viewBox="0 0 17 12" fill="none" xmlns="http://www.w3.org/2000/svg">
<path d="M8.125 7.29167C8.56703 7.29167 8.99095 7.11607 9.30351 6.80351C9.61607 6.49095 9.79167 6.06703 9.79167 5.625C9.79167 5.18297 9.61607 4.75905 9.30351 4.44649C8.99095 4.13393 8.56703 3.95833 8.125 3.95833C7.68298 3.95833 7.25905 4.13393 6.94649 4.44649C6.63393 4.75905 6.45834 5.18297 6.45834 5.625C6.45834 6.06703 6.63393 6.49095 6.94649 6.80351C7.25905 7.11607 7.68298 7.29167 8.125 7.29167Z" stroke="#1125D6" stroke-width="1.25" stroke-linecap="round" stroke-linejoin="round"/>
<path d="M15.625 5.625C14.0508 8.1175 11.2233 10.625 8.125 10.625C5.02667 10.625 2.19917 8.1175 0.625004 5.625C2.54084 3.25667 4.785 0.625 8.125 0.625C11.465 0.625 13.7092 3.25667 15.625 5.625Z" stroke="#1125D6" stroke-width="1.25" stroke-linecap="round" stroke-linejoin="round"/>
</svg>
